<mxfile host="app.diagrams.net" modified="2021-03-20T15:56:30.653Z" agent="5.0 (Windows NT 10.0; WOW64) AppleWebKit/537.36 (KHTML, like Gecko) Chrome/78.0.3904.108 Safari/537.36" etag="W3970PELD5DX-hnODkzK" version="14.4.8" type="github">
  <diagram id="dh1iSAnI9LNPIimuFHRk" name="第 1 页">
    <mxGraphModel dx="1422" dy="1903" grid="1" gridSize="10" guides="1" tooltips="1" connect="1" arrows="1" fold="1" page="1" pageScale="1" pageWidth="827" pageHeight="1169" math="0" shadow="0">
      <root>
        <mxCell id="0" />
        <mxCell id="1" parent="0" />
        <mxCell id="rMGrHHltTkKnKPmvmLih-1" value="浏览器" style="shape=umlLifeline;perimeter=lifelinePerimeter;whiteSpace=wrap;html=1;container=0;collapsible=0;recursiveResize=0;outlineConnect=0;" vertex="1" parent="1">
          <mxGeometry x="70.33" y="-30" width="99.67" height="1000" as="geometry" />
        </mxCell>
        <mxCell id="rMGrHHltTkKnKPmvmLih-2" value="Nginx" style="shape=umlLifeline;perimeter=lifelinePerimeter;whiteSpace=wrap;html=1;container=0;collapsible=0;recursiveResize=0;outlineConnect=0;" vertex="1" parent="1">
          <mxGeometry x="200" y="-30" width="100" height="1000" as="geometry" />
        </mxCell>
        <mxCell id="rMGrHHltTkKnKPmvmLih-4" value="System1&lt;br&gt;Gateway" style="shape=umlLifeline;perimeter=lifelinePerimeter;whiteSpace=wrap;html=1;container=0;collapsible=0;recursiveResize=0;outlineConnect=0;fillColor=#CCFF99;" vertex="1" parent="1">
          <mxGeometry x="340" y="-30" width="100" height="1000" as="geometry" />
        </mxCell>
        <mxCell id="rMGrHHltTkKnKPmvmLih-25" value="三方系统&lt;br&gt;Oauth2 Filter" style="shape=umlLifeline;perimeter=lifelinePerimeter;whiteSpace=wrap;html=1;container=0;collapsible=0;recursiveResize=0;outlineConnect=0;" vertex="1" parent="1">
          <mxGeometry x="755" y="-30" width="100" height="1000" as="geometry" />
        </mxCell>
        <mxCell id="rMGrHHltTkKnKPmvmLih-26" value="Oauth2&lt;br&gt;Service" style="shape=umlLifeline;perimeter=lifelinePerimeter;whiteSpace=wrap;html=1;container=0;collapsible=0;recursiveResize=0;outlineConnect=0;" vertex="1" parent="1">
          <mxGeometry x="480" y="-30" width="100" height="1000" as="geometry" />
        </mxCell>
        <mxCell id="rMGrHHltTkKnKPmvmLih-27" value="未登录&lt;br&gt;没有Session" style="html=1;points=[];perimeter=orthogonalPerimeter;" vertex="1" parent="1">
          <mxGeometry x="800" y="50" width="10" height="80" as="geometry" />
        </mxCell>
        <mxCell id="rMGrHHltTkKnKPmvmLih-28" value="dispatch" style="html=1;verticalAlign=bottom;endArrow=block;entryX=0;entryY=0;" edge="1" target="rMGrHHltTkKnKPmvmLih-27" parent="1" source="rMGrHHltTkKnKPmvmLih-1">
          <mxGeometry relative="1" as="geometry">
            <mxPoint x="595" y="50" as="sourcePoint" />
          </mxGeometry>
        </mxCell>
        <mxCell id="rMGrHHltTkKnKPmvmLih-29" value="return" style="html=1;verticalAlign=bottom;endArrow=open;dashed=1;endSize=8;exitX=0;exitY=0.95;" edge="1" source="rMGrHHltTkKnKPmvmLih-27" parent="1">
          <mxGeometry relative="1" as="geometry">
            <mxPoint x="730" y="126" as="targetPoint" />
          </mxGeometry>
        </mxCell>
        <mxCell id="rMGrHHltTkKnKPmvmLih-30" value="三方系统&lt;br&gt;服务" style="shape=umlLifeline;perimeter=lifelinePerimeter;whiteSpace=wrap;html=1;container=0;collapsible=0;recursiveResize=0;outlineConnect=0;" vertex="1" parent="1">
          <mxGeometry x="885" y="-30" width="100" height="1000" as="geometry" />
        </mxCell>
        <mxCell id="rMGrHHltTkKnKPmvmLih-31" value="Oauth2&lt;br&gt;Resource" style="shape=umlLifeline;perimeter=lifelinePerimeter;whiteSpace=wrap;html=1;container=0;collapsible=0;recursiveResize=0;outlineConnect=0;" vertex="1" parent="1">
          <mxGeometry x="620" y="-30" width="100" height="1000" as="geometry" />
        </mxCell>
      </root>
    </mxGraphModel>
  </diagram>
</mxfile>
